<svg width="511" height="382" viewBox="0 0 511 382" fill="none" xmlns="http://www.w3.org/2000/svg">
<g filter="url(#filter0_d_23_46)">
<path d="M16.921 122C15.9164 122 14.953 122.399 14.2427 123.109C13.5324 123.82 13.1333 124.783 13.1333 125.788C13.1333 126.792 13.5324 127.756 14.2427 128.466C14.953 129.176 15.9164 129.575 16.921 129.575H93.7554C94.7599 129.575 95.7234 129.176 96.4337 128.466C97.144 127.756 97.5431 126.792 97.5431 125.788C97.5431 124.783 97.144 123.82 96.4337 123.109C95.7234 122.399 94.7599 122 93.7554 122H16.921Z" fill="#3F3D56"/>
<path d="M16.9211 144.316C15.9177 144.317 14.9558 144.717 14.2468 145.427C13.5378 146.137 13.1396 147.1 13.1396 148.103C13.1396 149.107 13.5378 150.069 14.2468 150.779C14.9558 151.49 15.9177 151.889 16.9211 151.891H93.7556C94.7591 151.889 95.7209 151.49 96.4299 150.779C97.1389 150.069 97.5371 149.107 97.5371 148.103C97.5371 147.1 97.1389 146.137 96.4299 145.427C95.7209 144.717 94.7591 144.317 93.7556 144.316H16.9211Z" fill="#3F3D56"/>
<path d="M55.3389 215.09C50.6237 215.09 46.0144 213.691 42.0938 211.072C38.1732 208.452 35.1174 204.729 33.3129 200.372C31.5085 196.016 31.0363 191.223 31.9561 186.598C32.8759 181.973 35.1464 177.725 38.4805 174.391C41.8146 171.057 46.0625 168.786 50.6872 167.866C55.3118 166.946 60.1053 167.418 64.4617 169.222C68.8181 171.027 72.5416 174.082 75.1614 178.003C77.7812 181.923 79.1796 186.532 79.1799 191.248C79.1728 197.569 76.6588 203.629 72.1893 208.098C67.7198 212.568 61.6599 215.082 55.3389 215.09Z" fill="#E4E4E4"/>
<path d="M142.788 11C141.783 11 140.82 11.3991 140.109 12.1094C139.399 12.8197 139 13.7831 139 14.7877C139 15.7922 139.399 16.7556 140.109 17.4659C140.82 18.1763 141.783 18.5753 142.788 18.5753H219.622C220.627 18.5753 221.59 18.1763 222.3 17.4659C223.011 16.7556 223.41 15.7922 223.41 14.7877C223.41 13.7831 223.011 12.8197 222.3 12.1094C221.59 11.3991 220.627 11 219.622 11H142.788Z" fill="#3F3D56"/>
<path d="M142.788 33.3156C141.784 33.3173 140.823 33.7171 140.114 34.4272C139.405 35.1374 139.006 36.0998 139.006 37.1033C139.006 38.1068 139.405 39.0693 140.114 39.7794C140.823 40.4896 141.784 40.8894 142.788 40.891H219.622C220.626 40.8894 221.588 40.4896 222.297 39.7794C223.006 39.0693 223.404 38.1068 223.404 37.1033C223.404 36.0998 223.006 35.1374 222.297 34.4272C221.588 33.7171 220.626 33.3173 219.622 33.3156H142.788Z" fill="#3F3D56"/>
<path d="M180.841 105.682C176.126 105.682 171.516 104.284 167.596 101.664C163.675 99.0444 160.619 95.321 158.815 90.9647C157.01 86.6084 156.538 81.8149 157.458 77.1902C158.378 72.5655 160.648 68.3175 163.982 64.9833C167.317 61.649 171.564 59.3783 176.189 58.4582C180.814 57.5382 185.607 58.0102 189.964 59.8145C194.32 61.6188 198.044 64.6744 200.663 68.5948C203.283 72.5153 204.682 77.1246 204.682 81.8398C204.675 88.1608 202.161 94.2208 197.691 98.6905C193.222 103.16 187.162 105.674 180.841 105.682Z" fill="#E4E4E4"/>
<path d="M285.788 11C284.783 11 283.82 11.3991 283.109 12.1094C282.399 12.8197 282 13.7831 282 14.7877C282 15.7922 282.399 16.7556 283.109 17.4659C283.82 18.1763 284.783 18.5753 285.788 18.5753H362.622C363.627 18.5753 364.59 18.1763 365.3 17.4659C366.011 16.7556 366.41 15.7922 366.41 14.7877C366.41 13.7831 366.011 12.8197 365.3 12.1094C364.59 11.3991 363.627 11 362.622 11H285.788Z" fill="#3F3D56"/>
<path d="M285.788 33.3156C284.784 33.3173 283.823 33.7171 283.114 34.4272C282.405 35.1374 282.006 36.0998 282.006 37.1033C282.006 38.1068 282.405 39.0693 283.114 39.7794C283.823 40.4896 284.784 40.8894 285.788 40.891H362.622C363.626 40.8894 364.588 40.4896 365.297 39.7794C366.006 39.0693 366.404 38.1068 366.404 37.1033C366.404 36.0998 366.006 35.1374 365.297 34.4272C364.588 33.7171 363.626 33.3173 362.622 33.3156H285.788Z" fill="#3F3D56"/>
<path d="M324.206 104.09C319.49 104.09 314.881 102.691 310.96 100.072C307.04 97.4522 303.984 93.7288 302.18 89.3725C300.375 85.0162 299.903 80.2227 300.823 75.598C301.743 70.9734 304.013 66.7253 307.347 63.3911C310.681 60.0568 314.929 57.7861 319.554 56.866C324.178 55.946 328.972 56.418 333.328 58.2223C337.685 60.0266 341.408 63.0822 344.028 67.0026C346.648 70.9231 348.046 75.5324 348.047 80.2476C348.039 86.5686 345.525 92.6286 341.056 97.0983C336.587 101.568 330.527 104.082 324.206 104.09Z" fill="#E4E4E4"/>
<path d="M413.921 122C412.916 122 411.953 122.399 411.243 123.109C410.532 123.82 410.133 124.783 410.133 125.788C410.133 126.792 410.532 127.756 411.243 128.466C411.953 129.176 412.916 129.575 413.921 129.575H490.755C491.76 129.575 492.723 129.176 493.434 128.466C494.144 127.756 494.543 126.792 494.543 125.788C494.543 124.783 494.144 123.82 493.434 123.109C492.723 122.399 491.76 122 490.755 122H413.921Z" fill="#3F3D56"/>
<path d="M413.921 144.316C412.917 144.317 411.956 144.717 411.247 145.427C410.538 146.137 410.139 147.1 410.139 148.103C410.139 149.107 410.538 150.069 411.247 150.779C411.956 151.49 412.917 151.889 413.921 151.891H490.755C491.759 151.889 492.721 151.49 493.43 150.779C494.139 150.069 494.537 149.107 494.537 148.103C494.537 147.1 494.139 146.137 493.43 145.427C492.721 144.717 491.759 144.317 490.755 144.316H413.921Z" fill="#3F3D56"/>
<path d="M452.339 215.09C447.624 215.09 443.014 213.691 439.094 211.072C435.173 208.452 432.117 204.729 430.313 200.372C428.508 196.016 428.036 191.223 428.956 186.598C429.876 181.973 432.146 177.725 435.48 174.391C438.815 171.057 443.063 168.786 447.687 167.866C452.312 166.946 457.105 167.418 461.462 169.222C465.818 171.027 469.542 174.082 472.161 178.003C474.781 181.923 476.18 186.532 476.18 191.248C476.173 197.569 473.659 203.629 469.189 208.098C464.72 212.568 458.66 215.082 452.339 215.09Z" fill="#E4E4E4"/>
<path d="M225.5 303.378C227.203 299.788 219.312 292.48 207.875 287.056C196.438 281.631 185.786 280.145 184.083 283.735C182.38 287.325 190.271 294.633 201.708 300.058C213.145 305.482 223.797 306.969 225.5 303.378Z" fill="#2F2E41"/>
<path d="M319.89 340.358C322.936 337.807 318.819 327.872 310.693 318.166C302.567 308.461 293.51 302.661 290.463 305.212C287.416 307.763 291.533 317.699 299.659 327.404C307.785 337.11 316.843 342.909 319.89 340.358Z" fill="#2F2E41"/>
<path d="M256.421 360.665C281.737 360.665 302.26 340.142 302.26 314.826C302.26 289.51 281.737 268.987 256.421 268.987C231.105 268.987 210.583 289.51 210.583 314.826C210.583 340.142 231.105 360.665 256.421 360.665Z" fill="#2F2E41"/>
<path d="M275.823 350.801H261.897V375.751H275.823V350.801Z" fill="#2F2E41"/>
<path d="M247.972 350.801H234.046V375.751H247.972V350.801Z" fill="#2F2E41"/>
<path d="M264.218 380.393C270.627 380.393 275.823 378.444 275.823 376.041C275.823 373.637 270.627 371.689 264.218 371.689C257.809 371.689 252.614 373.637 252.614 376.041C252.614 378.444 257.809 380.393 264.218 380.393Z" fill="#2F2E41"/>
<path d="M236.367 379.812C242.776 379.812 247.972 377.864 247.972 375.461C247.972 373.057 242.776 371.109 236.367 371.109C229.958 371.109 224.762 373.057 224.762 375.461C224.762 377.864 229.958 379.812 236.367 379.812Z" fill="#2F2E41"/>
<path d="M242.028 257.206C246.121 240.722 264.188 231.022 282.383 235.539C300.577 240.057 312.008 257.082 307.915 273.566C303.822 290.049 290.243 290.103 272.048 285.585C253.854 281.067 237.935 273.689 242.028 257.206Z" fill="#4CBCFF"/>
<path d="M249.568 320.436C258.009 320.436 264.851 313.594 264.851 305.154C264.851 296.713 258.009 289.871 249.568 289.871C241.128 289.871 234.286 296.713 234.286 305.154C234.286 313.594 241.128 320.436 249.568 320.436Z" fill="white"/>
<path d="M243.287 304.77C246.101 304.77 248.382 302.489 248.382 299.676C248.382 296.862 246.101 294.582 243.287 294.582C240.474 294.582 238.193 296.862 238.193 299.676C238.193 302.489 240.474 304.77 243.287 304.77Z" fill="#3F3D56"/>
</g>
<defs>
<filter id="filter0_d_23_46" x="-4" y="0" width="514" height="389" filterUnits="userSpaceOnUse" color-interpolation-filters="sRGB">
<feFlood flood-opacity="0" result="BackgroundImageFix"/>
<feColorMatrix in="SourceAlpha" type="matrix" values="0 0 0 0 0 0 0 0 0 0 0 0 0 0 0 0 0 0 127 0" result="hardAlpha"/>
<feOffset dy="4"/>
<feGaussianBlur stdDeviation="2"/>
<feComposite in2="hardAlpha" operator="out"/>
<feColorMatrix type="matrix" values="0 0 0 0 0 0 0 0 0 0 0 0 0 0 0 0 0 0 0.25 0"/>
<feBlend mode="normal" in2="BackgroundImageFix" result="effect1_dropShadow_23_46"/>
<feBlend mode="normal" in="SourceGraphic" in2="effect1_dropShadow_23_46" result="shape"/>
</filter>
</defs>
</svg>
