<svg width="511" height="382" viewBox="0 0 511 382" fill="none" xmlns="http://www.w3.org/2000/svg">
<g clip-path="url(#clip0_23_23)">
<path d="M448.732 229.273H69.9591C65.1977 229.267 60.6328 227.373 57.266 224.006C53.8992 220.639 52.0054 216.074 52 211.312V18.643C52.0054 13.8812 53.8992 9.31592 57.266 5.94881C60.6328 2.5817 65.1977 0.687691 69.9591 0.682312H448.732C453.493 0.687688 458.058 2.58166 461.425 5.94878C464.792 9.31589 466.686 13.8812 466.691 18.643V211.312C466.686 216.074 464.792 220.639 461.425 224.006C458.058 227.373 453.493 229.267 448.732 229.273Z" fill="#E6E6E6"/>
<path d="M444.378 216.21H74.3128C71.8599 216.208 69.5083 215.232 67.7739 213.497C66.0395 211.763 65.0639 209.411 65.0612 206.958V22.997C65.0639 20.544 66.0395 18.1922 67.7739 16.4576C69.5083 14.723 71.8599 13.7473 74.3128 13.7446H444.378C446.831 13.7473 449.183 14.723 450.917 16.4576C452.651 18.1922 453.627 20.544 453.63 22.997V206.958C453.627 209.411 452.651 211.763 450.917 213.497C449.183 215.232 446.831 216.208 444.378 216.21Z" fill="white"/>
<path d="M404.106 189.541H114.584C112.275 189.541 110.06 188.624 108.427 186.991C106.794 185.358 105.877 183.143 105.877 180.833C105.877 178.524 106.794 176.309 108.427 174.676C110.06 173.043 112.275 172.125 114.584 172.125H404.106C406.416 172.125 408.63 173.043 410.263 174.676C411.896 176.309 412.814 178.524 412.814 180.833C412.814 183.143 411.896 185.358 410.263 186.991C408.63 188.624 406.416 189.541 404.106 189.541Z" fill="#E6E6E6"/>
<path d="M404.106 152.532H114.584C112.275 152.532 110.06 151.614 108.427 149.981C106.794 148.348 105.877 146.133 105.877 143.823C105.877 141.514 106.794 139.299 108.427 137.666C110.06 136.033 112.275 135.115 114.584 135.115H404.106C406.416 135.115 408.63 136.033 410.263 137.666C411.896 139.299 412.814 141.514 412.814 143.823C412.814 146.133 411.896 148.348 410.263 149.981C408.63 151.614 406.416 152.532 404.106 152.532Z" fill="#E6E6E6"/>
<path d="M177.713 109.674H114.585C112.132 109.671 109.78 108.695 108.046 106.96C106.311 105.226 105.336 102.874 105.333 100.421V54.4255C105.336 51.9725 106.311 49.6207 108.046 47.8861C109.78 46.1515 112.132 45.1758 114.585 45.1731H177.713C180.166 45.1758 182.518 46.1515 184.252 47.8861C185.987 49.6207 186.962 51.9725 186.965 54.4255V100.421C186.962 102.874 185.987 105.226 184.252 106.96C182.518 108.695 180.166 109.671 177.713 109.674Z" fill="#4CBCFF"/>
<path d="M404.428 104.636H257.49C255.181 104.636 252.966 103.719 251.333 102.086C249.7 100.453 248.783 98.2378 248.783 95.9282C248.783 93.6187 249.7 91.4037 251.333 89.7706C252.966 88.1375 255.181 87.22 257.49 87.22H404.428C406.737 87.22 408.952 88.1375 410.585 89.7706C412.218 91.4037 413.136 93.6187 413.136 95.9282C413.136 98.2378 412.218 100.453 410.585 102.086C408.952 103.719 406.737 104.636 404.428 104.636Z" fill="#CCCCCC"/>
<path d="M343.476 67.6266H257.49C255.181 67.6266 252.966 66.7091 251.333 65.076C249.7 63.4429 248.783 61.2279 248.783 58.9184C248.783 56.6088 249.7 54.3938 251.333 52.7607C252.966 51.1276 255.181 50.2102 257.49 50.2102H343.476C345.786 50.2102 348 51.1276 349.633 52.7607C351.266 54.3938 352.184 56.6088 352.184 58.9184C352.184 61.2279 351.266 63.4429 349.633 65.076C348 66.7091 345.786 67.6266 343.476 67.6266Z" fill="#CCCCCC"/>
<path d="M310.957 299.523C316.934 288.364 318.939 277.798 315.436 275.922C311.933 274.045 304.248 281.57 298.272 292.728C292.296 303.887 290.291 314.453 293.794 316.33C297.297 318.206 304.981 310.681 310.957 299.523Z" fill="#2F2E41"/>
<path d="M214.747 329.973C222.873 320.268 226.99 310.332 223.944 307.781C220.897 305.23 211.839 311.03 203.713 320.735C195.587 330.441 191.47 340.376 194.517 342.927C197.564 345.478 206.621 339.679 214.747 329.973Z" fill="#2F2E41"/>
<path d="M257.985 363.234C283.301 363.234 303.824 342.711 303.824 317.395C303.824 292.079 283.301 271.556 257.985 271.556C232.669 271.556 212.146 292.079 212.146 317.395C212.146 342.711 232.669 363.234 257.985 363.234Z" fill="#2F2E41"/>
<path d="M252.509 353.37H238.583V378.32H252.509V353.37Z" fill="#2F2E41"/>
<path d="M280.36 353.37H266.434V378.32H280.36V353.37Z" fill="#2F2E41"/>
<path d="M250.188 382.962C256.597 382.962 261.792 381.013 261.792 378.61C261.792 376.206 256.597 374.258 250.188 374.258C243.779 374.258 238.583 376.206 238.583 378.61C238.583 381.013 243.779 382.962 250.188 382.962Z" fill="#2F2E41"/>
<path d="M278.039 382.382C284.448 382.382 289.644 380.433 289.644 378.03C289.644 375.626 284.448 373.678 278.039 373.678C271.63 373.678 266.434 375.626 266.434 378.03C266.434 380.433 271.63 382.382 278.039 382.382Z" fill="#2F2E41"/>
<path d="M272.378 259.775C268.285 243.291 250.218 233.591 232.023 238.108C213.829 242.626 202.398 259.651 206.491 276.135C210.584 292.618 224.163 292.672 242.358 288.154C260.552 283.636 276.471 276.258 272.378 259.775Z" fill="#4CBCFF"/>
<path d="M264.838 323.005C273.278 323.005 280.12 316.163 280.12 307.723C280.12 299.282 273.278 292.44 264.838 292.44C256.397 292.44 249.555 299.282 249.555 307.723C249.555 316.163 256.397 323.005 264.838 323.005Z" fill="white"/>
<path d="M265.119 304.339C267.932 304.339 270.213 302.058 270.213 299.245C270.213 296.431 267.932 294.151 265.119 294.151C262.305 294.151 260.025 296.431 260.025 299.245C260.025 302.058 262.305 304.339 265.119 304.339Z" fill="#3F3D56"/>
<path d="M255.251 339.563C254.769 342.221 255.362 344.961 256.9 347.181C258.438 349.401 260.794 350.92 263.451 351.404C266.108 351.887 268.849 351.296 271.07 349.76C273.292 348.224 274.812 345.869 275.298 343.213V343.213L275.302 343.193C276.304 337.656 272.023 335.697 266.486 334.694C260.949 333.692 256.253 334.026 255.251 339.563Z" fill="white"/>
</g>
<defs>
<clipPath id="clip0_23_23">
<rect width="511" height="382" fill="white"/>
</clipPath>
</defs>
</svg>
